<svg version="1.1" xmlns="http://www.w3.org/2000/svg" xmlns:xlink="http://www.w3.org/1999/xlink" width="95.17898" height="49.17331" viewBox="0,0,95.17898,49.17331"><g transform="translate(-192.32102,-181.09931)"><g data-paper-data="{&quot;isPaintingLayer&quot;:true}" fill-rule="evenodd" stroke-miterlimit="10" stroke-dasharray="" stroke-dashoffset="0" style="mix-blend-mode: normal"><g><path d="M224.7,215.79764c0.8,0.19474 2.5,0.6329 0.1,2.28816c-2.4,1.65526 -9.3,1.99606 -10.1,1.99606c-3.1,0.04868 -6.9,0.04868 -11.1,-0.6329c-12.2,-1.94738 -12.3,-8.325 -8.4,-9.34736c3.8,-1.02236 5.5,2.92105 11,5.30658c2.4,1.07105 5.3,1.46054 7.7,1.70394c3.4,0.2921 9.9,-1.55789 10.8,-1.31448z" fill="#ffab19" stroke="#001026" stroke-width="1.2" stroke-linecap="round" stroke-linejoin="round"/><path d="M199.9,211.85421c1.6,1.31448 4.7,3.16448 4.7,3.16448c0,0 -3.7,-0.43815 -5.8,0.38947c-1.7,0.6329 -1.3,1.70394 -1.1,2.04475c-1.3,-0.6329 -2.9,-1.5092 -3.9,-3.21317c-1,-1.70394 0,-3.74869 2,-4.04079c2,-0.19474 2.5,0.53552 4.1,1.65526z" fill="#ffffff" stroke="none" stroke-width="1" stroke-linecap="butt" stroke-linejoin="miter"/></g><path d="M229.7,220.86079c-1.8,0.58421 -8,2.72633 -15.9,3.94341l-0.4,0.04868c-0.4,0.04868 -0.6,0.2921 -0.4,0.48684c1.7,1.16842 4.8,3.50526 -0.7,4.3329c-5.3,0.82762 -15.2,-6.03685 -11,-7.83816c1.9,-0.68159 3.6,-0.34078 4.5,-0.14606c0.5,0.09737 1,0.09737 1.5,0.04868c1.2,-0.19474 3.4,-0.58421 5.1,-1.02236c4.3,-1.07105 5.3,-1.5092 7.3,-2.23947c2,-0.73027 6.6,-2.53158 10.3,-0.97367c3.2,1.31448 1.4,2.775 -0.3,3.3592z" fill="#ffab19" stroke="#001026" stroke-width="1.2" stroke-linecap="round" stroke-linejoin="round"/><path d="M245.6,210.73447c0.5,0.19474 6.6,3.7 8.6,2.82368c2.4,-1.02236 5.7,-3.01842 9.3,-1.41185c3.6,1.60657 -3.2,4.3329 -6.1,5.06317c-6.9,1.5092 -12.5,-1.36316 -13.7,-2.14209c-1.2,-0.77895 -3.3,-2.09341 -3.3,-3.3592c0.1,-1.36316 3.5,-1.70394 5.2,-0.97367z" fill="#ffab19" stroke="#001026" stroke-width="1.2" stroke-linecap="round" stroke-linejoin="round"/><g><path d="M245.7,222.0779c2.1,0.92501 6.7,2.82368 6.7,2.82368c0,0 14.3,-1.21711 14.3,2.28816c0,2.09341 -7.2,2.58027 -16.9,2.14209c-0.6,-0.04868 -1.2,-0.14606 -1.7,-0.34078c-2.2,-0.92501 -8.5,-3.65132 -12.5,-5.55001c-5.9,-2.82368 -10.8,-4.67368 -10.8,-4.67368c-8.5,-4.04079 -1.6,-5.74475 1.1,-8.08159c2.5,-1.99606 3.6,-1.60657 9.6,-1.02236c3.4,0.24343 5.4,0.38947 7.6,0.34078c3.3,-0.04868 2.7,2.28816 1.8,3.50526c0,0 -1.4,1.80131 -2.7,2.72633c-1.6,1.11974 -2.8,1.85 -4,2.28816z" fill="#ffab19" stroke="#001026" stroke-width="1.2" stroke-linecap="round" stroke-linejoin="round"/><path d="M237.3,218.47526c0,0 -1.5,-0.58421 -3.1,-1.31448c-2,-0.8763 -4,-1.60657 -2,-3.1158c1.8,-1.16842 3.5,-2.72633 8,-1.31448c4.3,1.31448 2.4,2.53158 2.4,2.53158c-2.2,2.1908 -5.3,3.21317 -5.3,3.21317z" fill="#ffffff" stroke="none" stroke-width="1" stroke-linecap="butt" stroke-linejoin="miter"/></g><path d="M222.2,214.48316c2.2,1.36316 5.6,3.06711 1.3,4.47896c-5.9,1.60657 -10.8,-3.26185 -11.8,-4.9658c-0.9,-1.5092 1.7,-2.4829 3.9,-3.31052c4.3,-1.5092 7.9,-2.87239 11.9,-2.14209c5,0.8763 1.4,2.82368 -1.1,3.7c-1.5,0.53552 -3,1.11974 -4.1,1.46054c-0.3,0.24343 -0.4,0.53552 -0.1,0.77895z" fill="#ffab19" stroke="#001026" stroke-width="1.2" stroke-linecap="round" stroke-linejoin="round"/><g><path d="M253.7,181.67c0.3,-0.09737 0.8,-0.04868 0.9,0.14606l2.6,5.20921c0,0 6.4,2.28816 8.3,3.89473c3.2,2.67764 3.3,4.86843 3.3,4.86843c0,0 7.1,1.02236 8.3,3.79737c1.2,2.775 -3.2,8.03291 -22,9.83422c-18.8,1.80131 -33.9,-0.68159 -41,-6.23159c-7.1,-5.55001 4.1,-12.17106 3.5,-11.78158l-2.1,-8.71446c-0.1,-0.19474 0.4,-0.34078 0.8,-0.24343l12.1,3.84604c0,0 4.5,-0.82762 9.2,-0.92501c2.8,-0.09737 5.2,0 7.5,0.19474z" fill="#ffab19" stroke="#001026" stroke-width="1.2" stroke-linecap="butt" stroke-linejoin="miter"/><path d="M268.5,195.98316c0,0 6.9,0.8763 8.1,3.65132c1.2,2.775 -3.6,7.78948 -22.2,9.5421c-24.2,2.43421 -35.7,-4.57631 -29,-9.73685c6.7,-5.20921 18.2,-0.77895 26.6,-1.07105c7.2,-0.24343 8,-3.31052 16.5,-2.38553z" fill="#ffffff" stroke="none" stroke-width="1" stroke-linecap="butt" stroke-linejoin="miter"/><path d="M237,201.19237c0,-0.19474 0.4,-0.34078 0.8,-0.2921c1.9,0.34078 7.3,1.11974 13.3,1.31448c5.4,0.14606 8.6,0 10.1,-0.14606c0.5,-0.04868 0.9,0.19474 0.7,0.43815c-0.9,1.31448 -4.7,4.9658 -15.2,4.67368c-9.1,-0.48684 -10,-3.60263 -9.7,-5.98816z" fill="#ffffff" stroke="#001026" stroke-width="1.2" stroke-linecap="round" stroke-linejoin="round"/><path d="M286.9,196.51868c-4.7,1.85 -11.9,1.89869 -11.9,1.89869" fill="none" stroke="#001026" stroke-width="1.2" stroke-linecap="round" stroke-linejoin="round"/><path d="M285.6,201.97132c-6.3,0.24343 -10.2,-0.68159 -10.2,-0.68159" fill="none" stroke="#001026" stroke-width="1.2" stroke-linecap="round" stroke-linejoin="round"/><path d="M251.6,197.1029c2.1,0 4.3,0.09737 4.4,0.43815c0.1,0.68159 -1.4,2.04475 -3,2.09341c-1.8,0.09737 -6,-1.11974 -6,-1.89869c-0.1,-0.58421 2.6,-0.6329 4.6,-0.6329z" fill="#001026" stroke="#001026" stroke-width="1.2" stroke-linecap="round" stroke-linejoin="round"/><path d="M206.6,196.37265c0,0 8.6,1.36316 12.1,2.87239" fill="none" stroke="#001026" stroke-width="1.2" stroke-linecap="round" stroke-linejoin="round"/><path d="M219,200.94896c-4.3,0.82762 -11.7,0.2921 -11.7,0.2921" fill="none" stroke="#001026" stroke-width="1.2" stroke-linecap="round" stroke-linejoin="round"/><g><path d="M263.4,191.40685c2.9,2.1908 3,4.67368 0.2,5.55001c-2.8,0.8763 -7.4,-0.14606 -10.4,-2.33684c-2.9,-2.1908 -3,-4.67368 -0.2,-5.55001c2.8,-0.92501 7.5,0.14606 10.4,2.33684z" fill="#ffffff" stroke="#001026" stroke-width="1.2" stroke-linecap="round" stroke-linejoin="round"/><path d="M263,194.18185c0,0.53552 -0.8,0.97367 -1.8,0.97367c-1,0 -1.8,-0.43815 -1.8,-0.97367c0,-0.53552 0.8,-0.97367 1.8,-0.97367c1,0 1.8,0.43815 1.8,0.97367" fill="#001026" stroke="none" stroke-width="1" stroke-linecap="butt" stroke-linejoin="miter"/></g><g><path d="M238.6,192.76999c3,2.14209 2.8,4.77106 0.1,5.69604c-3.3,0.92501 -7.7,0.24343 -10.7,-1.89869c-3.1,-2.14209 -3.3,-4.91711 -0.2,-5.98816c3.1,-1.11974 7.8,0.04868 10.8,2.1908z" fill="#ffffff" stroke="#001026" stroke-width="1.2" stroke-linecap="round" stroke-linejoin="round"/><path d="M238,195.59369c0,0.53552 -0.8,0.97367 -1.8,0.97367c-1,0 -1.8,-0.43815 -1.8,-0.97367c0,-0.53552 0.8,-0.97367 1.8,-0.97367c1,0.04868 1.8,0.43815 1.8,0.97367" fill="#001026" stroke="none" stroke-width="1" stroke-linecap="butt" stroke-linejoin="miter"/></g></g></g></g></svg>