<svg version="1.1" xmlns="http://www.w3.org/2000/svg" xmlns:xlink="http://www.w3.org/1999/xlink" width="95.17898" height="16.64721" viewBox="0,0,95.17898,16.64721"><g transform="translate(-192.32102,-213.67214)"><g data-paper-data="{&quot;isPaintingLayer&quot;:true}" fill-rule="evenodd" stroke-miterlimit="10" stroke-dasharray="" stroke-dashoffset="0" style="mix-blend-mode: normal"><g><path d="M224.7,225.25345c0.8,0.06268 2.5,0.20371 0.1,0.73649c-2.4,0.53277 -9.3,0.64247 -10.1,0.64247c-3.1,0.01567 -6.9,0.01567 -11.1,-0.20371c-12.2,-0.6268 -12.3,-2.67954 -8.4,-3.00861c3.8,-0.32907 5.5,0.94019 11,1.70801c2.4,0.34473 5.3,0.4701 7.7,0.54844c3.4,0.09402 9.9,-0.50143 10.8,-0.42309z" fill="#ffab19" stroke="#001026" stroke-width="1.2" stroke-linecap="round" stroke-linejoin="round"/><path d="M199.9,223.98419c1.6,0.42309 4.7,1.01854 4.7,1.01854c0,0 -3.7,-0.14103 -5.8,0.12536c-1.7,0.20371 -1.3,0.54844 -1.1,0.65814c-1.3,-0.20371 -2.9,-0.48576 -3.9,-1.03422c-1,-0.54844 0,-1.20658 2,-1.3006c2,-0.06268 2.5,0.17237 4.1,0.53277z" fill="#ffffff" stroke="none" stroke-width="1" stroke-linecap="butt" stroke-linejoin="miter"/></g><path d="M229.7,226.88311c-1.8,0.18804 -8,0.87752 -15.9,1.26925l-0.4,0.01567c-0.4,0.01567 -0.6,0.09402 -0.4,0.1567c1.7,0.37607 4.8,1.12823 -0.7,1.39462c-5.3,0.26638 -15.2,-1.94306 -11,-2.52284c1.9,-0.21938 3.6,-0.10969 4.5,-0.04701c0.5,0.03134 1,0.03134 1.5,0.01567c1.2,-0.06268 3.4,-0.18804 5.1,-0.32907c4.3,-0.34473 5.3,-0.48576 7.3,-0.72081c2,-0.23505 6.6,-0.81483 10.3,-0.31339c3.2,0.42309 1.4,0.89318 -0.3,1.08121z" fill="#ffab19" stroke="#001026" stroke-width="1.2" stroke-linecap="round" stroke-linejoin="round"/><path d="M245.6,223.62379c0.5,0.06268 6.6,1.19091 8.6,0.90885c2.4,-0.32907 5.7,-0.97153 9.3,-0.45443c3.6,0.5171 -3.2,1.39462 -6.1,1.62967c-6.9,0.48576 -12.5,-0.43876 -13.7,-0.68947c-1.2,-0.25072 -3.3,-0.6738 -3.3,-1.08121c0.1,-0.43876 3.5,-0.54844 5.2,-0.31339z" fill="#ffab19" stroke="#001026" stroke-width="1.2" stroke-linecap="round" stroke-linejoin="round"/><g><path d="M245.7,227.27486c2.1,0.29773 6.7,0.90885 6.7,0.90885c0,0 14.3,-0.39175 14.3,0.73649c0,0.6738 -7.2,0.8305 -16.9,0.68947c-0.6,-0.01567 -1.2,-0.04701 -1.7,-0.10969c-2.2,-0.29773 -8.5,-1.17524 -12.5,-1.78636c-5.9,-0.90885 -10.8,-1.5043 -10.8,-1.5043c-8.5,-1.3006 -1.6,-1.84905 1.1,-2.6012c2.5,-0.64247 3.6,-0.5171 9.6,-0.32907c3.4,0.07835 5.4,0.12536 7.6,0.10969c3.3,-0.01567 2.7,0.73649 1.8,1.12823c0,0 -1.4,0.57978 -2.7,0.87752c-1.6,0.36041 -2.8,0.59545 -4,0.73649z" fill="#ffab19" stroke="#001026" stroke-width="1.2" stroke-linecap="round" stroke-linejoin="round"/><path d="M237.3,226.11529c0,0 -1.5,-0.18804 -3.1,-0.42309c-2,-0.28205 -4,-0.5171 -2,-1.00287c1.8,-0.37607 3.5,-0.87752 8,-0.42309c4.3,0.42309 2.4,0.81483 2.4,0.81483c-2.2,0.70514 -5.3,1.03422 -5.3,1.03422z" fill="#ffffff" stroke="none" stroke-width="1" stroke-linecap="butt" stroke-linejoin="miter"/></g><path d="M222.2,224.83036c2.2,0.43876 5.6,0.9872 1.3,1.44163c-5.9,0.5171 -10.8,-1.04988 -11.8,-1.59833c-0.9,-0.48576 1.7,-0.79916 3.9,-1.06555c4.3,-0.48576 7.9,-0.92453 11.9,-0.68947c5,0.28205 1.4,0.90885 -1.1,1.19091c-1.5,0.17237 -3,0.36041 -4.1,0.4701c-0.3,0.07835 -0.4,0.17237 -0.1,0.25072z" fill="#ffab19" stroke="#001026" stroke-width="1.2" stroke-linecap="round" stroke-linejoin="round"/><g><path d="M253.7,214.26889c0.3,-0.03134 0.8,-0.01567 0.9,0.04701l2.6,1.67667c0,0 6.4,0.73649 8.3,1.25359c3.2,0.86184 3.3,1.56699 3.3,1.56699c0,0 7.1,0.32907 8.3,1.22225c1.2,0.89318 -3.2,2.58553 -22,3.16531c-18.8,0.57978 -33.9,-0.21938 -41,-2.00574c-7.1,-1.78636 4.1,-3.91746 3.5,-3.7921l-2.1,-2.8049c-0.1,-0.06268 0.4,-0.10969 0.8,-0.07835l12.1,1.23791c0,0 4.5,-0.26638 9.2,-0.29773c2.8,-0.03134 5.2,0 7.5,0.06268z" fill="#ffab19" stroke="#001026" stroke-width="1.2" stroke-linecap="butt" stroke-linejoin="miter"/><path d="M268.5,218.87582c0,0 6.9,0.28205 8.1,1.17524c1.2,0.89318 -3.6,2.50718 -22.2,3.07129c-24.2,0.78349 -35.7,-1.47296 -29,-3.13397c6.7,-1.67667 18.2,-0.25072 26.6,-0.34473c7.2,-0.07835 8,-1.06555 16.5,-0.76782z" fill="#ffffff" stroke="none" stroke-width="1" stroke-linecap="butt" stroke-linejoin="miter"/><path d="M237,220.5525c0,-0.06268 0.4,-0.10969 0.8,-0.09402c1.9,0.10969 7.3,0.36041 13.3,0.42309c5.4,0.04701 8.6,0 10.1,-0.04701c0.5,-0.01567 0.9,0.06268 0.7,0.14103c-0.9,0.42309 -4.7,1.59833 -15.2,1.5043c-9.1,-0.1567 -10,-1.15957 -9.7,-1.92739z" fill="#ffffff" stroke="#001026" stroke-width="1.2" stroke-linecap="round" stroke-linejoin="round"/><path d="M286.9,219.04819c-4.7,0.59545 -11.9,0.61113 -11.9,0.61113" fill="none" stroke="#001026" stroke-width="1.2" stroke-linecap="round" stroke-linejoin="round"/><path d="M285.6,220.80322c-6.3,0.07835 -10.2,-0.21938 -10.2,-0.21938" fill="none" stroke="#001026" stroke-width="1.2" stroke-linecap="round" stroke-linejoin="round"/><path d="M251.6,219.23623c2.1,0 4.3,0.03134 4.4,0.14103c0.1,0.21938 -1.4,0.65814 -3,0.6738c-1.8,0.03134 -6,-0.36041 -6,-0.61113c-0.1,-0.18804 2.6,-0.20371 4.6,-0.20371z" fill="#001026" stroke="#001026" stroke-width="1.2" stroke-linecap="round" stroke-linejoin="round"/><path d="M206.6,219.00119c0,0 8.6,0.43876 12.1,0.92453" fill="none" stroke="#001026" stroke-width="1.2" stroke-linecap="round" stroke-linejoin="round"/><path d="M219,220.47415c-4.3,0.26638 -11.7,0.09402 -11.7,0.09402" fill="none" stroke="#001026" stroke-width="1.2" stroke-linecap="round" stroke-linejoin="round"/><g><path d="M263.4,217.40286c2.9,0.70514 3,1.5043 0.2,1.78636c-2.8,0.28205 -7.4,-0.04701 -10.4,-0.75215c-2.9,-0.70514 -3,-1.5043 -0.2,-1.78636c2.8,-0.29773 7.5,0.04701 10.4,0.75215z" fill="#ffffff" stroke="#001026" stroke-width="1.2" stroke-linecap="round" stroke-linejoin="round"/><path d="M263,218.29604c0,0.17237 -0.8,0.31339 -1.8,0.31339c-1,0 -1.8,-0.14103 -1.8,-0.31339c0,-0.17237 0.8,-0.31339 1.8,-0.31339c1,0 1.8,0.14103 1.8,0.31339" fill="#001026" stroke="none" stroke-width="1" stroke-linecap="butt" stroke-linejoin="miter"/></g><g><path d="M238.6,217.84161c3,0.68947 2.8,1.53565 0.1,1.83337c-3.3,0.29773 -7.7,0.07835 -10.7,-0.61113c-3.1,-0.68947 -3.3,-1.58266 -0.2,-1.92739c3.1,-0.36041 7.8,0.01567 10.8,0.70514z" fill="#ffffff" stroke="#001026" stroke-width="1.2" stroke-linecap="round" stroke-linejoin="round"/><path d="M238,218.75046c0,0.17237 -0.8,0.31339 -1.8,0.31339c-1,0 -1.8,-0.14103 -1.8,-0.31339c0,-0.17237 0.8,-0.31339 1.8,-0.31339c1,0.01567 1.8,0.14103 1.8,0.31339" fill="#001026" stroke="none" stroke-width="1" stroke-linecap="butt" stroke-linejoin="miter"/></g></g></g></g></svg>