<svg version="1.1" xmlns="http://www.w3.org/2000/svg" xmlns:xlink="http://www.w3.org/1999/xlink" width="95.17898" height="30.79191" viewBox="0,0,95.17898,30.79191"><g transform="translate(-192.32101,-199.50713)"><g data-paper-data="{&quot;isPaintingLayer&quot;:true}" fill-rule="evenodd" stroke-miterlimit="10" stroke-dasharray="" stroke-dashoffset="0" style="mix-blend-mode: normal"><g><path d="M224.7,221.14223c0.8,0.1201 2.5,0.39031 0.1,1.41113c-2.4,1.02081 -9.3,1.23099 -10.1,1.23099c-3.1,0.03002 -6.9,0.03002 -11.1,-0.39031c-12.2,-1.20096 -12.3,-5.13409 -8.4,-5.76459c3.8,-0.6305 5.5,1.80143 11,3.27261c2.4,0.66052 5.3,0.90073 7.7,1.05083c3.4,0.18014 9.9,-0.96076 10.8,-0.81065z" fill="#ffab19" stroke="#001026" stroke-width="1.2" stroke-linecap="round" stroke-linejoin="round"/><path d="M199.9,218.71029c1.6,0.81065 4.7,1.95156 4.7,1.95156c0,0 -3.7,-0.27021 -5.8,0.24019c-1.7,0.39031 -1.3,1.05083 -1.1,1.26101c-1.3,-0.39031 -2.9,-0.93073 -3.9,-1.98159c-1,-1.05083 0,-2.31185 2,-2.49199c2,-0.1201 2.5,0.33026 4.1,1.02081z" fill="#ffffff" stroke="none" stroke-width="1" stroke-linecap="butt" stroke-linejoin="miter"/></g><path d="M229.7,224.26471c-1.8,0.36029 -8,1.68135 -15.9,2.43193l-0.4,0.03002c-0.4,0.03002 -0.6,0.18014 -0.4,0.30024c1.7,0.72057 4.8,2.16172 -0.7,2.67213c-5.3,0.5104 -15.2,-3.72297 -11,-4.83385c1.9,-0.42034 3.6,-0.21016 4.5,-0.09008c0.5,0.06005 1,0.06005 1.5,0.03002c1.2,-0.1201 3.4,-0.36029 5.1,-0.6305c4.3,-0.66052 5.3,-0.93073 7.3,-1.3811c2,-0.45036 6.6,-1.56124 10.3,-0.60047c3.2,0.81065 1.4,1.71136 -0.3,2.07164z" fill="#ffab19" stroke="#001026" stroke-width="1.2" stroke-linecap="round" stroke-linejoin="round"/><path d="M245.6,218.01974c0.5,0.1201 6.6,2.28182 8.6,1.74138c2.4,-0.6305 5.7,-1.86148 9.3,-0.8707c3.6,0.99078 -3.2,2.67213 -6.1,3.12249c-6.9,0.93073 -12.5,-0.84067 -13.7,-1.32104c-1.2,-0.48038 -3.3,-1.29102 -3.3,-2.07164c0.1,-0.84067 3.5,-1.05083 5.2,-0.60047z" fill="#ffab19" stroke="#001026" stroke-width="1.2" stroke-linecap="round" stroke-linejoin="round"/><g><path d="M245.7,225.01531c2.1,0.57046 6.7,1.74138 6.7,1.74138c0,0 14.3,-0.7506 14.3,1.41113c0,1.29102 -7.2,1.59127 -16.9,1.32104c-0.6,-0.03002 -1.2,-0.09008 -1.7,-0.21016c-2.2,-0.57046 -8.5,-2.2518 -12.5,-3.42273c-5.9,-1.74138 -10.8,-2.88229 -10.8,-2.88229c-8.5,-2.49199 -1.6,-3.54283 1.1,-4.98398c2.5,-1.23099 3.6,-0.99078 9.6,-0.6305c3.4,0.15013 5.4,0.24019 7.6,0.21016c3.3,-0.03002 2.7,1.41113 1.8,2.16172c0,0 -1.4,1.11088 -2.7,1.68135c-1.6,0.69055 -2.8,1.14091 -4,1.41113z" fill="#ffab19" stroke="#001026" stroke-width="1.2" stroke-linecap="round" stroke-linejoin="round"/><path d="M237.3,222.79354c0,0 -1.5,-0.36029 -3.1,-0.81065c-2,-0.54042 -4,-0.99078 -2,-1.92154c1.8,-0.72057 3.5,-1.68135 8,-0.81065c4.3,0.81065 2.4,1.56124 2.4,1.56124c-2.2,1.35108 -5.3,1.98159 -5.3,1.98159z" fill="#ffffff" stroke="none" stroke-width="1" stroke-linecap="butt" stroke-linejoin="miter"/></g><path d="M222.2,220.33158c2.2,0.84067 5.6,1.89151 1.3,2.76221c-5.9,0.99078 -10.8,-2.01161 -11.8,-3.06245c-0.9,-0.93073 1.7,-1.53122 3.9,-2.04162c4.3,-0.93073 7.9,-1.77142 11.9,-1.32104c5,0.54042 1.4,1.74138 -1.1,2.28182c-1.5,0.33026 -3,0.69055 -4.1,0.90073c-0.3,0.15013 -0.4,0.33026 -0.1,0.48038z" fill="#ffab19" stroke="#001026" stroke-width="1.2" stroke-linecap="round" stroke-linejoin="round"/><g><path d="M253.7,200.09546c0.3,-0.06005 0.8,-0.03002 0.9,0.09008l2.6,3.21256c0,0 6.4,1.41113 8.3,2.40191c3.2,1.65132 3.3,3.0024 3.3,3.0024c0,0 7.1,0.6305 8.3,2.34187c1.2,1.71136 -3.2,4.95396 -22,6.06484c-18.8,1.11088 -33.9,-0.42034 -41,-3.84307c-7.1,-3.42273 4.1,-7.50598 3.5,-7.26579l-2.1,-5.37427c-0.1,-0.1201 0.4,-0.21016 0.8,-0.15013l12.1,2.37188c0,0 4.5,-0.5104 9.2,-0.57046c2.8,-0.06005 5.2,0 7.5,0.1201z" fill="#ffab19" stroke="#001026" stroke-width="1.2" stroke-linecap="butt" stroke-linejoin="miter"/><path d="M268.5,208.92249c0,0 6.9,0.54042 8.1,2.2518c1.2,1.71136 -3.6,4.80383 -22.2,5.88468c-24.2,1.5012 -35.7,-2.82224 -29,-6.00479c6.7,-3.21256 18.2,-0.48038 26.6,-0.66052c7.2,-0.15013 8,-2.04162 16.5,-1.47117z" fill="#ffffff" stroke="none" stroke-width="1" stroke-linecap="butt" stroke-linejoin="miter"/><path d="M237,212.13505c0,-0.1201 0.4,-0.21016 0.8,-0.18014c1.9,0.21016 7.3,0.69055 13.3,0.81065c5.4,0.09008 8.6,0 10.1,-0.09008c0.5,-0.03002 0.9,0.1201 0.7,0.27021c-0.9,0.81065 -4.7,3.06245 -15.2,2.88229c-9.1,-0.30024 -10,-2.22177 -9.7,-3.69294z" fill="#ffffff" stroke="#001026" stroke-width="1.2" stroke-linecap="round" stroke-linejoin="round"/><path d="M286.9,209.25275c-4.7,1.14091 -11.9,1.17094 -11.9,1.17094" fill="none" stroke="#001026" stroke-width="1.2" stroke-linecap="round" stroke-linejoin="round"/><path d="M285.6,212.61544c-6.3,0.15013 -10.2,-0.42034 -10.2,-0.42034" fill="none" stroke="#001026" stroke-width="1.2" stroke-linecap="round" stroke-linejoin="round"/><path d="M251.6,209.61304c2.1,0 4.3,0.06005 4.4,0.27021c0.1,0.42034 -1.4,1.26101 -3,1.29102c-1.8,0.06005 -6,-0.69055 -6,-1.17094c-0.1,-0.36029 2.6,-0.39031 4.6,-0.39031z" fill="#001026" stroke="#001026" stroke-width="1.2" stroke-linecap="round" stroke-linejoin="round"/><path d="M206.6,209.16269c0,0 8.6,0.84067 12.1,1.77142" fill="none" stroke="#001026" stroke-width="1.2" stroke-linecap="round" stroke-linejoin="round"/><path d="M219,211.98494c-4.3,0.5104 -11.7,0.18014 -11.7,0.18014" fill="none" stroke="#001026" stroke-width="1.2" stroke-linecap="round" stroke-linejoin="round"/><g><path d="M263.4,206.10025c2.9,1.35108 3,2.88229 0.2,3.42273c-2.8,0.54042 -7.4,-0.09008 -10.4,-1.44115c-2.9,-1.35108 -3,-2.88229 -0.2,-3.42273c2.8,-0.57046 7.5,0.09008 10.4,1.44115z" fill="#ffffff" stroke="#001026" stroke-width="1.2" stroke-linecap="round" stroke-linejoin="round"/><path d="M263,207.81161c0,0.33026 -0.8,0.60047 -1.8,0.60047c-1,0 -1.8,-0.27021 -1.8,-0.60047c0,-0.33026 0.8,-0.60047 1.8,-0.60047c1,0 1.8,0.27021 1.8,0.60047" fill="#001026" stroke="none" stroke-width="1" stroke-linecap="butt" stroke-linejoin="miter"/></g><g><path d="M238.6,206.94091c3,1.32104 2.8,2.94235 0.1,3.51279c-3.3,0.57046 -7.7,0.15013 -10.7,-1.17094c-3.1,-1.32104 -3.3,-3.03242 -0.2,-3.69294c3.1,-0.69055 7.8,0.03002 10.8,1.35108z" fill="#ffffff" stroke="#001026" stroke-width="1.2" stroke-linecap="round" stroke-linejoin="round"/><path d="M238,208.6823c0,0.33026 -0.8,0.60047 -1.8,0.60047c-1,0 -1.8,-0.27021 -1.8,-0.60047c0,-0.33026 0.8,-0.60047 1.8,-0.60047c1,0.03002 1.8,0.27021 1.8,0.60047" fill="#001026" stroke="none" stroke-width="1" stroke-linecap="butt" stroke-linejoin="miter"/></g></g></g></g></svg>