<svg version="1.1" xmlns="http://www.w3.org/2000/svg" xmlns:xlink="http://www.w3.org/1999/xlink" width="95.17898" height="78.96686" viewBox="0,0,95.17898,78.96686"><g transform="translate(-192.32102,-151.37469)"><g data-paper-data="{&quot;isPaintingLayer&quot;:true}" fill-rule="evenodd" stroke-miterlimit="10" stroke-dasharray="" stroke-dashoffset="0" style="mix-blend-mode: normal"><g><path d="M224.7,207.16406c0.8,0.31531 2.5,1.02477 0.1,3.7049c-2.4,2.68014 -9.3,3.23194 -10.1,3.23194c-3.1,0.07882 -6.9,0.07882 -11.1,-1.02477c-12.2,-3.15312 -12.3,-13.47955 -8.4,-15.13493c3.8,-1.65538 5.5,4.72966 11,8.59223c2.4,1.73421 5.3,2.36484 7.7,2.75898c3.4,0.47296 9.9,-2.52249 10.8,-2.12835z" fill="#ffab19" stroke="#001026" stroke-width="1.2" stroke-linecap="round" stroke-linejoin="round"/><path d="M199.9,200.779c1.6,2.12835 4.7,5.12381 4.7,5.12381c0,0 -3.7,-0.70945 -5.8,0.63061c-1.7,1.02477 -1.3,2.75898 -1.1,3.31077c-1.3,-1.02477 -2.9,-2.44366 -3.9,-5.20264c-1,-2.75898 0,-6.06974 2,-6.54271c2,-0.31531 2.5,0.8671 4.1,2.68014z" fill="#ffffff" stroke="none" stroke-width="1" stroke-linecap="butt" stroke-linejoin="miter"/></g><path d="M229.7,215.36215c-1.8,0.94593 -8,4.41436 -15.9,6.38504l-0.4,0.07882c-0.4,0.07882 -0.6,0.47296 -0.4,0.78828c1.7,1.89186 4.8,5.6756 -0.7,7.01567c-5.3,1.34007 -15.2,-9.77463 -11,-12.69127c1.9,-1.10358 3.6,-0.55179 4.5,-0.23649c0.5,0.15767 1,0.15767 1.5,0.07882c1.2,-0.31531 3.4,-0.94593 5.1,-1.65538c4.3,-1.73421 5.3,-2.44366 7.3,-3.62608c2,-1.18242 6.6,-4.09904 10.3,-1.57656c3.2,2.12835 1.4,4.49318 -0.3,5.43911z" fill="#ffab19" stroke="#001026" stroke-width="1.2" stroke-linecap="round" stroke-linejoin="round"/><path d="M245.6,198.96597c0.5,0.31531 6.6,5.99092 8.6,4.57201c2.4,-1.65538 5.7,-4.88732 9.3,-2.28601c3.6,2.60131 -3.2,7.01567 -6.1,8.19809c-6.9,2.44366 -12.5,-2.20717 -13.7,-3.46841c-1.2,-1.26124 -3.3,-3.38959 -3.3,-5.43911c0.1,-2.20717 3.5,-2.75898 5.2,-1.57656z" fill="#ffab19" stroke="#001026" stroke-width="1.2" stroke-linecap="round" stroke-linejoin="round"/><g><path d="M245.7,217.33284c2.1,1.49773 6.7,4.57201 6.7,4.57201c0,0 14.3,-1.9707 14.3,3.7049c0,3.38959 -7.2,4.17787 -16.9,3.46841c-0.6,-0.07882 -1.2,-0.23649 -1.7,-0.55179c-2.2,-1.49773 -8.5,-5.91209 -12.5,-8.98637c-5.9,-4.57201 -10.8,-7.56746 -10.8,-7.56746c-8.5,-6.54271 -1.6,-9.30168 1.1,-13.08541c2.5,-3.23194 3.6,-2.60131 9.6,-1.65538c3.4,0.39414 5.4,0.63061 7.6,0.55179c3.3,-0.07882 2.7,3.7049 1.8,5.6756c0,0 -1.4,2.91663 -2.7,4.41436c-1.6,1.81303 -2.8,2.99545 -4,3.7049z" fill="#ffab19" stroke="#001026" stroke-width="1.2" stroke-linecap="round" stroke-linejoin="round"/><path d="M237.3,211.49958c0,0 -1.5,-0.94593 -3.1,-2.12835c-2,-1.41889 -4,-2.60131 -2,-5.04497c1.8,-1.89186 3.5,-4.41436 8,-2.12835c4.3,2.12835 2.4,4.09904 2.4,4.09904c-2.2,3.54726 -5.3,5.20264 -5.3,5.20264z" fill="#ffffff" stroke="none" stroke-width="1" stroke-linecap="butt" stroke-linejoin="miter"/></g><path d="M222.2,205.03571c2.2,2.20717 5.6,4.96615 1.3,7.25216c-5.9,2.60131 -10.8,-5.28146 -11.8,-8.04044c-0.9,-2.44366 1.7,-4.02022 3.9,-5.36029c4.3,-2.44366 7.9,-4.65085 11.9,-3.46841c5,1.41889 1.4,4.57201 -1.1,5.99092c-1.5,0.8671 -3,1.81303 -4.1,2.36484c-0.3,0.39414 -0.4,0.8671 -0.1,1.26124z" fill="#ffab19" stroke="#001026" stroke-width="1.2" stroke-linecap="round" stroke-linejoin="round"/><g><path d="M253.7,151.9058c0.3,-0.15767 0.8,-0.07882 0.9,0.23649l2.6,8.43456c0,0 6.4,3.7049 8.3,6.30622c3.2,4.33553 3.3,7.88277 3.3,7.88277c0,0 7.1,1.65538 8.3,6.14857c1.2,4.49318 -3.2,13.00659 -22,15.92321c-18.8,2.91663 -33.9,-1.10358 -41,-10.08996c-7.1,-8.98637 4.1,-19.70694 3.5,-19.07631l-2.1,-14.11016c-0.1,-0.31531 0.4,-0.55179 0.8,-0.39414l12.1,6.22739c0,0 4.5,-1.34007 9.2,-1.49773c2.8,-0.15767 5.2,0 7.5,0.31531z" fill="#ffab19" stroke="#001026" stroke-width="1.2" stroke-linecap="butt" stroke-linejoin="miter"/><path d="M268.5,175.08116c0,0 6.9,1.41889 8.1,5.91209c1.2,4.49318 -3.6,12.61243 -22.2,15.45023c-24.2,3.94138 -35.7,-7.40981 -29,-15.76555c6.7,-8.43456 18.2,-1.26124 26.6,-1.73421c7.2,-0.39414 8,-5.36029 16.5,-3.86257z" fill="#ffffff" stroke="none" stroke-width="1" stroke-linecap="butt" stroke-linejoin="miter"/><path d="M237,183.51572c0,-0.31531 0.4,-0.55179 0.8,-0.47296c1.9,0.55179 7.3,1.81303 13.3,2.12835c5.4,0.23649 8.6,0 10.1,-0.23649c0.5,-0.07882 0.9,0.31531 0.7,0.70945c-0.9,2.12835 -4.7,8.04044 -15.2,7.56746c-9.1,-0.78828 -10,-5.83325 -9.7,-9.69581z" fill="#ffffff" stroke="#001026" stroke-width="1.2" stroke-linecap="round" stroke-linejoin="round"/><path d="M286.9,175.94826c-4.7,2.99545 -11.9,3.07429 -11.9,3.07429" fill="none" stroke="#001026" stroke-width="1.2" stroke-linecap="round" stroke-linejoin="round"/><path d="M285.6,184.77698c-6.3,0.39414 -10.2,-1.10358 -10.2,-1.10358" fill="none" stroke="#001026" stroke-width="1.2" stroke-linecap="round" stroke-linejoin="round"/><path d="M251.6,176.89421c2.1,0 4.3,0.15767 4.4,0.70945c0.1,1.10358 -1.4,3.31077 -3,3.38959c-1.8,0.15767 -6,-1.81303 -6,-3.07429c-0.1,-0.94593 2.6,-1.02477 4.6,-1.02477z" fill="#001026" stroke="#001026" stroke-width="1.2" stroke-linecap="round" stroke-linejoin="round"/><path d="M206.6,175.71179c0,0 8.6,2.20717 12.1,4.65085" fill="none" stroke="#001026" stroke-width="1.2" stroke-linecap="round" stroke-linejoin="round"/><path d="M219,183.1216c-4.3,1.34007 -11.7,0.47296 -11.7,0.47296" fill="none" stroke="#001026" stroke-width="1.2" stroke-linecap="round" stroke-linejoin="round"/><g><path d="M263.4,167.67137c2.9,3.54726 3,7.56746 0.2,8.98637c-2.8,1.41889 -7.4,-0.23649 -10.4,-3.78373c-2.9,-3.54726 -3,-7.56746 -0.2,-8.98637c2.8,-1.49773 7.5,0.23649 10.4,3.78373z" fill="#ffffff" stroke="#001026" stroke-width="1.2" stroke-linecap="round" stroke-linejoin="round"/><path d="M263,172.16453c0,0.8671 -0.8,1.57656 -1.8,1.57656c-1,0 -1.8,-0.70945 -1.8,-1.57656c0,-0.8671 0.8,-1.57656 1.8,-1.57656c1,0 1.8,0.70945 1.8,1.57656" fill="#001026" stroke="none" stroke-width="1" stroke-linecap="butt" stroke-linejoin="miter"/></g><g><path d="M238.6,169.87852c3,3.46841 2.8,7.72512 0.1,9.22284c-3.3,1.49773 -7.7,0.39414 -10.7,-3.07429c-3.1,-3.46841 -3.3,-7.9616 -0.2,-9.69581c3.1,-1.81303 7.8,0.07882 10.8,3.54726z" fill="#ffffff" stroke="#001026" stroke-width="1.2" stroke-linecap="round" stroke-linejoin="round"/><path d="M238,174.45055c0,0.8671 -0.8,1.57656 -1.8,1.57656c-1,0 -1.8,-0.70945 -1.8,-1.57656c0,-0.8671 0.8,-1.57656 1.8,-1.57656c1,0.07882 1.8,0.70945 1.8,1.57656" fill="#001026" stroke="none" stroke-width="1" stroke-linecap="butt" stroke-linejoin="miter"/></g></g></g></g></svg>