<svg version="1.1" xmlns="http://www.w3.org/2000/svg" xmlns:xlink="http://www.w3.org/1999/xlink" width="95.17898" height="1.51451" viewBox="0,0,95.17898,1.51451"><g transform="translate(-192.32101,-229.04333)"><g data-paper-data="{&quot;isPaintingLayer&quot;:true}" fill-rule="evenodd" stroke-miterlimit="10" stroke-dasharray="" stroke-dashoffset="0" style="mix-blend-mode: normal"><g><path d="M224.7,229.86693c0.8,0.00128 2.5,0.00415 0.1,0.01499c-2.4,0.01085 -9.3,0.01308 -10.1,0.01308c-3.1,0.00032 -6.9,0.00032 -11.1,-0.00415c-12.2,-0.01276 -12.3,-0.05454 -8.4,-0.06124c3.8,-0.0067 5.5,0.01914 11,0.03477c2.4,0.00702 5.3,0.00957 7.7,0.01116c3.4,0.00191 9.9,-0.01021 10.8,-0.00861z" fill="#ffab19" stroke="#001026" stroke-width="1.2" stroke-linecap="round" stroke-linejoin="round"/><path d="M199.9,229.84109c1.6,0.00861 4.7,0.02073 4.7,0.02073c0,0 -3.7,-0.00287 -5.8,0.00255c-1.7,0.00415 -1.3,0.01116 -1.1,0.0134c-1.3,-0.00415 -2.9,-0.00989 -3.9,-0.02105c-1,-0.01116 0,-0.02456 2,-0.02647c2,-0.00128 2.5,0.00351 4.1,0.01084z" fill="#ffffff" stroke="none" stroke-width="1" stroke-linecap="butt" stroke-linejoin="miter"/></g><path d="M229.7,229.9001c-1.8,0.00383 -8,0.01786 -15.9,0.02584l-0.4,0.00032c-0.4,0.00032 -0.6,0.00191 -0.4,0.00319c1.7,0.00765 4.8,0.02297 -0.7,0.02839c-5.3,0.00542 -15.2,-0.03955 -11,-0.05136c1.9,-0.00447 3.6,-0.00223 4.5,-0.00096c0.5,0.00064 1,0.00064 1.5,0.00032c1.2,-0.00128 3.4,-0.00383 5.1,-0.0067c4.3,-0.00702 5.3,-0.00989 7.3,-0.01467c2,-0.00478 6.6,-0.01659 10.3,-0.00638c3.2,0.00861 1.4,0.01818 -0.3,0.02201z" fill="#ffab19" stroke="#001026" stroke-width="1.2" stroke-linecap="round" stroke-linejoin="round"/><path d="M245.6,229.83376c0.5,0.00128 6.6,0.02424 8.6,0.0185c2.4,-0.0067 5.7,-0.01978 9.3,-0.00925c3.6,0.01053 -3.2,0.02839 -6.1,0.03317c-6.9,0.00989 -12.5,-0.00893 -13.7,-0.01404c-1.2,-0.0051 -3.3,-0.01372 -3.3,-0.02201c0.1,-0.00893 3.5,-0.01116 5.2,-0.00638z" fill="#ffab19" stroke="#001026" stroke-width="1.2" stroke-linecap="round" stroke-linejoin="round"/><g><path d="M245.7,229.90808c2.1,0.00606 6.7,0.0185 6.7,0.0185c0,0 14.3,-0.00798 14.3,0.01499c0,0.01372 -7.2,0.01691 -16.9,0.01404c-0.6,-0.00032 -1.2,-0.00096 -1.7,-0.00223c-2.2,-0.00606 -8.5,-0.02392 -12.5,-0.03636c-5.9,-0.0185 -10.8,-0.03062 -10.8,-0.03062c-8.5,-0.02648 -1.6,-0.03764 1.1,-0.05295c2.5,-0.01308 3.6,-0.01053 9.6,-0.0067c3.4,0.0016 5.4,0.00255 7.6,0.00223c3.3,-0.00032 2.7,0.01499 1.8,0.02297c0,0 -1.4,0.0118 -2.7,0.01786c-1.6,0.00734 -2.8,0.01212 -4,0.01499z" fill="#ffab19" stroke="#001026" stroke-width="1.2" stroke-linecap="round" stroke-linejoin="round"/><path d="M237.3,229.88447c0,0 -1.5,-0.00383 -3.1,-0.00861c-2,-0.00574 -4,-0.01053 -2,-0.02041c1.8,-0.00766 3.5,-0.01786 8,-0.00861c4.3,0.00861 2.4,0.01659 2.4,0.01659c-2.2,0.01435 -5.3,0.02105 -5.3,0.02105z" fill="#ffffff" stroke="none" stroke-width="1" stroke-linecap="butt" stroke-linejoin="miter"/></g><path d="M222.2,229.85832c2.2,0.00893 5.6,0.0201 1.3,0.02935c-5.9,0.01053 -10.8,-0.02137 -11.8,-0.03254c-0.9,-0.00989 1.7,-0.01627 3.9,-0.02169c4.3,-0.00989 7.9,-0.01882 11.9,-0.01404c5,0.00574 1.4,0.0185 -1.1,0.02424c-1.5,0.00351 -3,0.00734 -4.1,0.00957c-0.3,0.00159 -0.4,0.00351 -0.1,0.0051z" fill="#ffab19" stroke="#001026" stroke-width="1.2" stroke-linecap="round" stroke-linejoin="round"/><g><path d="M253.7,229.64333c0.3,-0.00064 0.8,-0.00032 0.9,0.00096l2.6,0.03413c0,0 6.4,0.01499 8.3,0.02552c3.2,0.01754 3.3,0.0319 3.3,0.0319c0,0 7.1,0.0067 8.3,0.02488c1.2,0.01818 -3.2,0.05263 -22,0.06443c-18.8,0.0118 -33.9,-0.00447 -41,-0.04083c-7.1,-0.03636 4.1,-0.07974 3.5,-0.07719l-2.1,-0.0571c-0.1,-0.00128 0.4,-0.00223 0.8,-0.0016l12.1,0.0252c0,0 4.5,-0.00542 9.2,-0.00606c2.8,-0.00064 5.2,0 7.5,0.00128z" fill="#ffab19" stroke="#001026" stroke-width="1.2" stroke-linecap="butt" stroke-linejoin="miter"/><path d="M268.5,229.73711c0,0 6.9,0.00574 8.1,0.02392c1.2,0.01818 -3.6,0.05104 -22.2,0.06252c-24.2,0.01595 -35.7,-0.02998 -29,-0.0638c6.7,-0.03413 18.2,-0.0051 26.6,-0.00702c7.2,-0.0016 8,-0.02169 16.5,-0.01563z" fill="#ffffff" stroke="none" stroke-width="1" stroke-linecap="butt" stroke-linejoin="miter"/><path d="M237,229.77124c0,-0.00128 0.4,-0.00223 0.8,-0.00191c1.9,0.00223 7.3,0.00734 13.3,0.00861c5.4,0.00096 8.6,0 10.1,-0.00096c0.5,-0.00032 0.9,0.00128 0.7,0.00287c-0.9,0.00861 -4.7,0.03254 -15.2,0.03062c-9.1,-0.00319 -10,-0.0236 -9.7,-0.03923z" fill="#ffffff" stroke="#001026" stroke-width="1.2" stroke-linecap="round" stroke-linejoin="round"/><path d="M286.9,229.74061c-4.7,0.01212 -11.9,0.01244 -11.9,0.01244" fill="none" stroke="#001026" stroke-width="1.2" stroke-linecap="round" stroke-linejoin="round"/><path d="M285.6,229.77634c-6.3,0.0016 -10.2,-0.00447 -10.2,-0.00447" fill="none" stroke="#001026" stroke-width="1.2" stroke-linecap="round" stroke-linejoin="round"/><path d="M251.6,229.74444c2.1,0 4.3,0.00064 4.4,0.00287c0.1,0.00447 -1.4,0.0134 -3,0.01372c-1.8,0.00064 -6,-0.00734 -6,-0.01244c-0.1,-0.00383 2.6,-0.00415 4.6,-0.00415z" fill="#001026" stroke="#001026" stroke-width="1.2" stroke-linecap="round" stroke-linejoin="round"/><path d="M206.6,229.73966c0,0 8.6,0.00893 12.1,0.01882" fill="none" stroke="#001026" stroke-width="1.2" stroke-linecap="round" stroke-linejoin="round"/><path d="M219,229.76964c-4.3,0.00542 -11.7,0.00191 -11.7,0.00191" fill="none" stroke="#001026" stroke-width="1.2" stroke-linecap="round" stroke-linejoin="round"/><g><path d="M263.4,229.70712c2.9,0.01435 3,0.03062 0.2,0.03636c-2.8,0.00574 -7.4,-0.00096 -10.4,-0.01531c-2.9,-0.01435 -3,-0.03062 -0.2,-0.03636c2.8,-0.00606 7.5,0.00096 10.4,0.01531z" fill="#ffffff" stroke="#001026" stroke-width="1.2" stroke-linecap="round" stroke-linejoin="round"/><path d="M263,229.7253c0,0.00351 -0.8,0.00638 -1.8,0.00638c-1,0 -1.8,-0.00287 -1.8,-0.00638c0,-0.00351 0.8,-0.00638 1.8,-0.00638c1,0 1.8,0.00287 1.8,0.00638" fill="#001026" stroke="none" stroke-width="1" stroke-linecap="butt" stroke-linejoin="miter"/></g><g><path d="M238.6,229.71605c3,0.01404 2.8,0.03126 0.1,0.03732c-3.3,0.00606 -7.7,0.0016 -10.7,-0.01244c-3.1,-0.01403 -3.3,-0.03222 -0.2,-0.03923c3.1,-0.00734 7.8,0.00032 10.8,0.01435z" fill="#ffffff" stroke="#001026" stroke-width="1.2" stroke-linecap="round" stroke-linejoin="round"/><path d="M238,229.73455c0,0.00351 -0.8,0.00638 -1.8,0.00638c-1,0 -1.8,-0.00287 -1.8,-0.00638c0,-0.00351 0.8,-0.00638 1.8,-0.00638c1,0.00032 1.8,0.00287 1.8,0.00638" fill="#001026" stroke="none" stroke-width="1" stroke-linecap="butt" stroke-linejoin="miter"/></g></g></g></g></svg>