<svg version="1.1" xmlns="http://www.w3.org/2000/svg" xmlns:xlink="http://www.w3.org/1999/xlink" width="95.17898" height="68.2557" viewBox="0,0,95.17898,68.2557"><g transform="translate(-192.32102,-161.98949)"><g data-paper-data="{&quot;isPaintingLayer&quot;:true}" fill-rule="evenodd" stroke-miterlimit="10" stroke-dasharray="" stroke-dashoffset="0" style="mix-blend-mode: normal"><g><path d="M224.7,210.24749c0.8,0.27226 2.5,0.88481 0.1,3.19892c-2.4,2.31411 -9.3,2.79056 -10.1,2.79056c-3.1,0.06806 -6.9,0.06806 -11.1,-0.88481c-12.2,-2.7225 -12.3,-11.63864 -8.4,-13.06793c3.8,-1.4293 5.5,4.08373 11,7.41878c2.4,1.49736 5.3,2.04188 7.7,2.38217c3.4,0.40836 9.9,-2.17798 10.8,-1.83769z" fill="#ffab19" stroke="#001026" stroke-width="1.2" stroke-linecap="round" stroke-linejoin="round"/><path d="M199.9,204.73443c1.6,1.83769 4.7,4.42405 4.7,4.42405c0,0 -3.7,-0.61255 -5.8,0.54449c-1.7,0.88481 -1.3,2.38217 -1.1,2.85863c-1.3,-0.88481 -2.9,-2.10991 -3.9,-4.49212c-1,-2.38217 0,-5.2408 2,-5.64916c2,-0.27226 2.5,0.74868 4.1,2.31411z" fill="#ffffff" stroke="none" stroke-width="1" stroke-linecap="butt" stroke-linejoin="miter"/></g><path d="M229.7,217.32594c-1.8,0.81675 -8,3.8115 -15.9,5.51303l-0.4,0.06806c-0.4,0.06806 -0.6,0.40836 -0.4,0.68062c1.7,1.63349 4.8,4.90048 -0.7,6.05754c-5.3,1.15704 -15.2,-8.43972 -11,-10.95802c1.9,-0.95288 3.6,-0.47642 4.5,-0.20419c0.5,0.13613 1,0.13613 1.5,0.06806c1.2,-0.27226 3.4,-0.81675 5.1,-1.4293c4.3,-1.49736 5.3,-2.10991 7.3,-3.13085c2,-1.02094 6.6,-3.53924 10.3,-1.36123c3.2,1.83769 1.4,3.87954 -0.3,4.69628z" fill="#ffab19" stroke="#001026" stroke-width="1.2" stroke-linecap="round" stroke-linejoin="round"/><path d="M245.6,203.169c0.5,0.27226 6.6,5.17273 8.6,3.9476c2.4,-1.4293 5.7,-4.21986 9.3,-1.97382c3.6,2.24604 -3.2,6.05754 -6.1,7.07848c-6.9,2.10991 -12.5,-1.90575 -13.7,-2.99472c-1.2,-1.089 -3.3,-2.92666 -3.3,-4.69628c0.1,-1.90575 3.5,-2.38217 5.2,-1.36123z" fill="#ffab19" stroke="#001026" stroke-width="1.2" stroke-linecap="round" stroke-linejoin="round"/><g><path d="M245.7,219.0275c2.1,1.2932 6.7,3.9476 6.7,3.9476c0,0 14.3,-1.70156 14.3,3.19892c0,2.92666 -7.2,3.60731 -16.9,2.99472c-0.6,-0.06806 -1.2,-0.20419 -1.7,-0.47642c-2.2,-1.2932 -8.5,-5.10467 -12.5,-7.7591c-5.9,-3.9476 -10.8,-6.53397 -10.8,-6.53397c-8.5,-5.64916 -1.6,-8.03136 1.1,-11.29834c2.5,-2.79056 3.6,-2.24604 9.6,-1.4293c3.4,0.34032 5.4,0.54449 7.6,0.47642c3.3,-0.06806 2.7,3.19892 1.8,4.90048c0,0 -1.4,2.5183 -2.7,3.8115c-1.6,1.56543 -2.8,2.58637 -4,3.19892z" fill="#ffab19" stroke="#001026" stroke-width="1.2" stroke-linecap="round" stroke-linejoin="round"/><path d="M237.3,213.99089c0,0 -1.5,-0.81675 -3.1,-1.83769c-2,-1.2251 -4,-2.24604 -2,-4.35599c1.8,-1.63349 3.5,-3.8115 8,-1.83769c4.3,1.83769 2.4,3.53924 2.4,3.53924c-2.2,3.06282 -5.3,4.49212 -5.3,4.49212z" fill="#ffffff" stroke="none" stroke-width="1" stroke-linecap="butt" stroke-linejoin="miter"/></g><path d="M222.2,208.4098c2.2,1.90575 5.6,4.28792 1.3,6.26174c-5.9,2.24604 -10.8,-4.56018 -11.8,-6.94236c-0.9,-2.10991 1.7,-3.47118 3.9,-4.62822c4.3,-2.10991 7.9,-4.0157 11.9,-2.99472c5,1.2251 1.4,3.9476 -1.1,5.17273c-1.5,0.74868 -3,1.56543 -4.1,2.04188c-0.3,0.34032 -0.4,0.74868 -0.1,1.089z" fill="#ffab19" stroke="#001026" stroke-width="1.2" stroke-linecap="round" stroke-linejoin="round"/><g><path d="M253.7,162.53587c0.3,-0.13613 0.8,-0.06806 0.9,0.20419l2.6,7.28265c0,0 6.4,3.19892 8.3,5.44496c3.2,3.74344 3.3,6.80623 3.3,6.80623c0,0 7.1,1.4293 8.3,5.30886c1.2,3.87954 -3.2,11.23028 -22,13.74858c-18.8,2.5183 -33.9,-0.95288 -41,-8.71198c-7.1,-7.7591 4.1,-17.01556 3.5,-16.47105l-2.1,-12.18312c-0.1,-0.27226 0.4,-0.47642 0.8,-0.34032l12.1,5.3769c0,0 4.5,-1.15704 9.2,-1.2932c2.8,-0.13613 5.2,0 7.5,0.27226z" fill="#ffab19" stroke="#001026" stroke-width="1.2" stroke-linecap="butt" stroke-linejoin="miter"/><path d="M268.5,182.54616c0,0 6.9,1.2251 8.1,5.10467c1.2,3.87954 -3.6,10.88996 -22.2,13.34019c-24.2,3.40311 -35.7,-6.39784 -29,-13.61245c6.7,-7.28265 18.2,-1.089 26.6,-1.49736c7.2,-0.34032 8,-4.62822 16.5,-3.33505z" fill="#ffffff" stroke="none" stroke-width="1" stroke-linecap="butt" stroke-linejoin="miter"/><path d="M237,189.82881c0,-0.27226 0.4,-0.47642 0.8,-0.40836c1.9,0.47642 7.3,1.56543 13.3,1.83769c5.4,0.20419 8.6,0 10.1,-0.20419c0.5,-0.06806 0.9,0.27226 0.7,0.61255c-0.9,1.83769 -4.7,6.94236 -15.2,6.53397c-9.1,-0.68062 -10,-5.0366 -9.7,-8.37165z" fill="#ffffff" stroke="#001026" stroke-width="1.2" stroke-linecap="round" stroke-linejoin="round"/><path d="M286.9,183.29484c-4.7,2.58637 -11.9,2.65443 -11.9,2.65443" fill="none" stroke="#001026" stroke-width="1.2" stroke-linecap="round" stroke-linejoin="round"/><path d="M285.6,190.91781c-6.3,0.34032 -10.2,-0.95288 -10.2,-0.95288" fill="none" stroke="#001026" stroke-width="1.2" stroke-linecap="round" stroke-linejoin="round"/><path d="M251.6,184.11159c2.1,0 4.3,0.13613 4.4,0.61255c0.1,0.95288 -1.4,2.85863 -3,2.92666c-1.8,0.13613 -6,-1.56543 -6,-2.65443c-0.1,-0.81675 2.6,-0.88481 4.6,-0.88481z" fill="#001026" stroke="#001026" stroke-width="1.2" stroke-linecap="round" stroke-linejoin="round"/><path d="M206.6,183.09068c0,0 8.6,1.90575 12.1,4.0157" fill="none" stroke="#001026" stroke-width="1.2" stroke-linecap="round" stroke-linejoin="round"/><path d="M219,189.48852c-4.3,1.15704 -11.7,0.40836 -11.7,0.40836" fill="none" stroke="#001026" stroke-width="1.2" stroke-linecap="round" stroke-linejoin="round"/><g><path d="M263.4,176.14832c2.9,3.06282 3,6.53397 0.2,7.7591c-2.8,1.2251 -7.4,-0.20419 -10.4,-3.26698c-2.9,-3.06282 -3,-6.53397 -0.2,-7.7591c2.8,-1.2932 7.5,0.20419 10.4,3.26698z" fill="#ffffff" stroke="#001026" stroke-width="1.2" stroke-linecap="round" stroke-linejoin="round"/><path d="M263,180.02786c0,0.74868 -0.8,1.36123 -1.8,1.36123c-1,0 -1.8,-0.61255 -1.8,-1.36123c0,-0.74868 0.8,-1.36123 1.8,-1.36123c1,0 1.8,0.61255 1.8,1.36123" fill="#001026" stroke="none" stroke-width="1" stroke-linecap="butt" stroke-linejoin="miter"/></g><g><path d="M238.6,178.05404c3,2.99472 2.8,6.6701 0.1,7.96326c-3.3,1.2932 -7.7,0.34032 -10.7,-2.65443c-3.1,-2.99472 -3.3,-6.87429 -0.2,-8.37165c3.1,-1.56543 7.8,0.06806 10.8,3.06282z" fill="#ffffff" stroke="#001026" stroke-width="1.2" stroke-linecap="round" stroke-linejoin="round"/><path d="M238,182.00167c0,0.74868 -0.8,1.36123 -1.8,1.36123c-1,0 -1.8,-0.61255 -1.8,-1.36123c0,-0.74868 0.8,-1.36123 1.8,-1.36123c1,0.06806 1.8,0.61255 1.8,1.36123" fill="#001026" stroke="none" stroke-width="1" stroke-linecap="butt" stroke-linejoin="miter"/></g></g></g></g></svg>