<svg version="1.1" xmlns="http://www.w3.org/2000/svg" xmlns:xlink="http://www.w3.org/1999/xlink" width="95.17898" height="10.63417" viewBox="0,0,95.17898,10.63417"><g transform="translate(-192.32102,-219.69381)"><g data-paper-data="{&quot;isPaintingLayer&quot;:true}" fill-rule="evenodd" stroke-miterlimit="10" stroke-dasharray="" stroke-dashoffset="0" style="mix-blend-mode: normal"><g><path d="M224.7,227.00072c0.8,0.03828 2.5,0.1244 0.1,0.44976c-2.4,0.32536 -9.3,0.39235 -10.1,0.39235c-3.1,0.00957 -6.9,0.00957 -11.1,-0.1244c-12.2,-0.38278 -12.3,-1.63636 -8.4,-1.83732c3.8,-0.20096 5.5,0.57416 11,1.04306c2.4,0.21052 5.3,0.28708 7.7,0.33492c3.4,0.05742 9.9,-0.30622 10.8,-0.25838z" fill="#ffab19" stroke="#001026" stroke-width="1.2" stroke-linecap="round" stroke-linejoin="round"/><path d="M199.9,226.2256c1.6,0.25838 4.7,0.62201 4.7,0.62201c0,0 -3.7,-0.08613 -5.8,0.07656c-1.7,0.1244 -1.3,0.33492 -1.1,0.40192c-1.3,-0.1244 -2.9,-0.29665 -3.9,-0.63158c-1,-0.33492 0,-0.73684 2,-0.79426c2,-0.03828 2.5,0.10526 4.1,0.32536z" fill="#ffffff" stroke="none" stroke-width="1" stroke-linecap="butt" stroke-linejoin="miter"/></g><path d="M229.7,227.99593c-1.8,0.11483 -8,0.53589 -15.9,0.77511l-0.4,0.00957c-0.4,0.00957 -0.6,0.05742 -0.4,0.09569c1.7,0.22966 4.8,0.68899 -0.7,0.85168c-5.3,0.16267 -15.2,-1.1866 -11,-1.54066c1.9,-0.13397 3.6,-0.06699 4.5,-0.02871c0.5,0.01914 1,0.01914 1.5,0.00957c1.2,-0.03828 3.4,-0.11483 5.1,-0.20096c4.3,-0.21052 5.3,-0.29665 7.3,-0.44019c2,-0.14354 6.6,-0.49761 10.3,-0.19138c3.2,0.25838 1.4,0.54545 -0.3,0.66028z" fill="#ffab19" stroke="#001026" stroke-width="1.2" stroke-linecap="round" stroke-linejoin="round"/><path d="M245.6,226.00551c0.5,0.03828 6.6,0.72727 8.6,0.55502c2.4,-0.20096 5.7,-0.5933 9.3,-0.27751c3.6,0.31579 -3.2,0.85168 -6.1,0.99522c-6.9,0.29665 -12.5,-0.26794 -13.7,-0.42105c-1.2,-0.15311 -3.3,-0.41148 -3.3,-0.66028c0.1,-0.26794 3.5,-0.33492 5.2,-0.19138z" fill="#ffab19" stroke="#001026" stroke-width="1.2" stroke-linecap="round" stroke-linejoin="round"/><g><path d="M245.7,228.23517c2.1,0.18182 6.7,0.55502 6.7,0.55502c0,0 14.3,-0.23924 14.3,0.44976c0,0.41148 -7.2,0.50718 -16.9,0.42105c-0.6,-0.00957 -1.2,-0.02871 -1.7,-0.06699c-2.2,-0.18182 -8.5,-0.7177 -12.5,-1.09091c-5.9,-0.55502 -10.8,-0.91866 -10.8,-0.91866c-8.5,-0.79426 -1.6,-1.12919 1.1,-1.58852c2.5,-0.39235 3.6,-0.31579 9.6,-0.20096c3.4,0.04785 5.4,0.07656 7.6,0.06699c3.3,-0.00957 2.7,0.44976 1.8,0.68899c0,0 -1.4,0.35406 -2.7,0.53589c-1.6,0.2201 -2.8,0.36363 -4,0.44976z" fill="#ffab19" stroke="#001026" stroke-width="1.2" stroke-linecap="round" stroke-linejoin="round"/><path d="M237.3,227.52703c0,0 -1.5,-0.11483 -3.1,-0.25838c-2,-0.17224 -4,-0.31579 -2,-0.61244c1.8,-0.22966 3.5,-0.53589 8,-0.25838c4.3,0.25838 2.4,0.49761 2.4,0.49761c-2.2,0.43062 -5.3,0.63158 -5.3,0.63158z" fill="#ffffff" stroke="none" stroke-width="1" stroke-linecap="butt" stroke-linejoin="miter"/></g><path d="M222.2,226.74234c2.2,0.26794 5.6,0.60287 1.3,0.88038c-5.9,0.31579 -10.8,-0.64115 -11.8,-0.97608c-0.9,-0.29665 1.7,-0.48804 3.9,-0.65072c4.3,-0.29665 7.9,-0.5646 11.9,-0.42105c5,0.17224 1.4,0.55502 -1.1,0.72727c-1.5,0.10526 -3,0.2201 -4.1,0.28708c-0.3,0.04785 -0.4,0.10526 -0.1,0.15311z" fill="#ffab19" stroke="#001026" stroke-width="1.2" stroke-linecap="round" stroke-linejoin="round"/><g><path d="M253.7,220.29259c0.3,-0.01914 0.8,-0.00957 0.9,0.02871l2.6,1.02392c0,0 6.4,0.44976 8.3,0.76555c3.2,0.52631 3.3,0.95694 3.3,0.95694c0,0 7.1,0.20096 8.3,0.74641c1.2,0.54545 -3.2,1.57895 -22,1.93301c-18.8,0.35406 -33.9,-0.13397 -41,-1.22488c-7.1,-1.09091 4.1,-2.39234 3.5,-2.31578l-2.1,-1.71291c-0.1,-0.03828 0.4,-0.06699 0.8,-0.04785l12.1,0.75597c0,0 4.5,-0.16267 9.2,-0.18182c2.8,-0.01914 5.2,0 7.5,0.03828z" fill="#ffab19" stroke="#001026" stroke-width="1.2" stroke-linecap="butt" stroke-linejoin="miter"/><path d="M268.5,223.10598c0,0 6.9,0.17224 8.1,0.7177c1.2,0.54545 -3.6,1.5311 -22.2,1.8756c-24.2,0.47847 -35.7,-0.89952 -29,-1.91387c6.7,-1.02392 18.2,-0.15311 26.6,-0.21052c7.2,-0.04785 8,-0.65072 16.5,-0.4689z" fill="#ffffff" stroke="none" stroke-width="1" stroke-linecap="butt" stroke-linejoin="miter"/><path d="M237,224.12991c0,-0.03828 0.4,-0.06699 0.8,-0.05742c1.9,0.06699 7.3,0.2201 13.3,0.25838c5.4,0.02871 8.6,0 10.1,-0.02871c0.5,-0.00957 0.9,0.03828 0.7,0.08613c-0.9,0.25838 -4.7,0.97608 -15.2,0.91866c-9.1,-0.09569 -10,-0.70813 -9.7,-1.17703z" fill="#ffffff" stroke="#001026" stroke-width="1.2" stroke-linecap="round" stroke-linejoin="round"/><path d="M286.9,223.21125c-4.7,0.36363 -11.9,0.37321 -11.9,0.37321" fill="none" stroke="#001026" stroke-width="1.2" stroke-linecap="round" stroke-linejoin="round"/><path d="M285.6,224.28302c-6.3,0.04785 -10.2,-0.13397 -10.2,-0.13397" fill="none" stroke="#001026" stroke-width="1.2" stroke-linecap="round" stroke-linejoin="round"/><path d="M251.6,223.32608c2.1,0 4.3,0.01914 4.4,0.08613c0.1,0.13397 -1.4,0.40192 -3,0.41148c-1.8,0.01914 -6,-0.2201 -6,-0.37321c-0.1,-0.11483 2.6,-0.1244 4.6,-0.1244z" fill="#001026" stroke="#001026" stroke-width="1.2" stroke-linecap="round" stroke-linejoin="round"/><path d="M206.6,223.18255c0,0 8.6,0.26794 12.1,0.5646" fill="none" stroke="#001026" stroke-width="1.2" stroke-linecap="round" stroke-linejoin="round"/><path d="M219,224.08206c-4.3,0.16267 -11.7,0.05742 -11.7,0.05742" fill="none" stroke="#001026" stroke-width="1.2" stroke-linecap="round" stroke-linejoin="round"/><g><path d="M263.4,222.20647c2.9,0.43062 3,0.91866 0.2,1.09091c-2.8,0.17224 -7.4,-0.02871 -10.4,-0.45933c-2.9,-0.43062 -3,-0.91866 -0.2,-1.09091c2.8,-0.18182 7.5,0.02871 10.4,0.45933z" fill="#ffffff" stroke="#001026" stroke-width="1.2" stroke-linecap="round" stroke-linejoin="round"/><path d="M263,222.75192c0,0.10526 -0.8,0.19138 -1.8,0.19138c-1,0 -1.8,-0.08613 -1.8,-0.19138c0,-0.10526 0.8,-0.19138 1.8,-0.19138c1,0 1.8,0.08613 1.8,0.19138" fill="#001026" stroke="none" stroke-width="1" stroke-linecap="butt" stroke-linejoin="miter"/></g><g><path d="M238.6,222.47441c3,0.42105 2.8,0.9378 0.1,1.11961c-3.3,0.18182 -7.7,0.04785 -10.7,-0.37321c-3.1,-0.42105 -3.3,-0.96651 -0.2,-1.17703c3.1,-0.2201 7.8,0.00957 10.8,0.43062z" fill="#ffffff" stroke="#001026" stroke-width="1.2" stroke-linecap="round" stroke-linejoin="round"/><path d="M238,223.02943c0,0.10526 -0.8,0.19138 -1.8,0.19138c-1,0 -1.8,-0.08613 -1.8,-0.19138c0,-0.10526 0.8,-0.19138 1.8,-0.19138c1,0.00957 1.8,0.08613 1.8,0.19138" fill="#001026" stroke="none" stroke-width="1" stroke-linecap="butt" stroke-linejoin="miter"/></g></g></g></g></svg>