<svg version="1.1" xmlns="http://www.w3.org/2000/svg" xmlns:xlink="http://www.w3.org/1999/xlink" width="95.17898" height="89.58093" viewBox="0,0,95.17898,89.58093"><g transform="translate(-192.32101,-140.76063)"><g data-paper-data="{&quot;isPaintingLayer&quot;:true}" fill-rule="evenodd" stroke-miterlimit="10" stroke-dasharray="" stroke-dashoffset="0" style="mix-blend-mode: normal"><g><path d="M224.7,204.08063c0.8,0.35838 2.5,1.16472 0.1,4.21089c-2.4,3.04617 -9.3,3.67332 -10.1,3.67332c-3.1,0.08959 -6.9,0.08959 -11.1,-1.16472c-12.2,-3.58374 -12.3,-15.32045 -8.4,-17.20192c3.8,-1.88146 5.5,5.37559 11,9.76567c2.4,1.97106 5.3,2.6878 7.7,3.13576c3.4,0.53756 9.9,-2.86698 10.8,-2.41902z" fill="#ffab19" stroke="#001026" stroke-width="1.2" stroke-linecap="round" stroke-linejoin="round"/><path d="M199.9,196.82358c1.6,2.41902 4.7,5.82357 4.7,5.82357c0,0 -3.7,-0.80634 -5.8,0.71675c-1.7,1.16472 -1.3,3.13576 -1.1,3.76291c-1.3,-1.16472 -2.9,-2.7774 -3.9,-5.91316c-1,-3.13576 0,-6.89869 2,-7.43625c2,-0.35838 2.5,0.98553 4.1,3.04617z" fill="#ffffff" stroke="none" stroke-width="1" stroke-linecap="butt" stroke-linejoin="miter"/></g><path d="M229.7,213.39834c-1.8,1.07512 -8,5.01723 -15.9,7.25706l-0.4,0.08959c-0.4,0.08959 -0.6,0.53756 -0.4,0.89593c1.7,2.15024 4.8,6.45072 -0.7,7.9738c-5.3,1.52308 -15.2,-11.10957 -11,-14.42452c1.9,-1.2543 3.6,-0.62715 4.5,-0.26878c0.5,0.17919 1,0.17919 1.5,0.08959c1.2,-0.35838 3.4,-1.07512 5.1,-1.88146c4.3,-1.97106 5.3,-2.7774 7.3,-4.12129c2,-1.3439 6.6,-4.65885 10.3,-1.79187c3.2,2.41902 1.4,5.10682 -0.3,6.18193z" fill="#ffab19" stroke="#001026" stroke-width="1.2" stroke-linecap="round" stroke-linejoin="round"/><path d="M245.6,194.76294c0.5,0.35838 6.6,6.8091 8.6,5.19642c2.4,-1.88146 5.7,-5.55478 9.3,-2.59821c3.6,2.95657 -3.2,7.9738 -6.1,9.31771c-6.9,2.7774 -12.5,-2.50861 -13.7,-3.9421c-1.2,-1.43349 -3.3,-3.85251 -3.3,-6.18193c0.1,-2.50861 3.5,-3.13576 5.2,-1.79187z" fill="#ffab19" stroke="#001026" stroke-width="1.2" stroke-linecap="round" stroke-linejoin="round"/><g><path d="M245.7,215.63817c2.1,1.70227 6.7,5.19642 6.7,5.19642c0,0 14.3,-2.23983 14.3,4.21089c0,3.85251 -7.2,4.74844 -16.9,3.9421c-0.6,-0.08959 -1.2,-0.26878 -1.7,-0.62715c-2.2,-1.70227 -8.5,-6.7195 -12.5,-10.21363c-5.9,-5.19642 -10.8,-8.60095 -10.8,-8.60095c-8.5,-7.43625 -1.6,-10.57201 1.1,-14.87249c2.5,-3.67332 3.6,-2.95657 9.6,-1.88146c3.4,0.44796 5.4,0.71675 7.6,0.62715c3.3,-0.08959 2.7,4.21089 1.8,6.45072c0,0 -1.4,3.31495 -2.7,5.01723c-1.6,2.06064 -2.8,3.40455 -4,4.21089z" fill="#ffab19" stroke="#001026" stroke-width="1.2" stroke-linecap="round" stroke-linejoin="round"/><path d="M237.3,209.00827c0,0 -1.5,-1.07512 -3.1,-2.41902c-2,-1.61268 -4,-2.95657 -2,-5.73397c1.8,-2.15024 3.5,-5.01723 8,-2.41902c4.3,2.41902 2.4,4.65885 2.4,4.65885c-2.2,4.0317 -5.3,5.91316 -5.3,5.91316z" fill="#ffffff" stroke="none" stroke-width="1" stroke-linecap="butt" stroke-linejoin="miter"/></g><path d="M222.2,201.66161c2.2,2.50861 5.6,5.64438 1.3,8.24259c-5.9,2.95657 -10.8,-6.00276 -11.8,-9.13852c-0.9,-2.7774 1.7,-4.56925 3.9,-6.09235c4.3,-2.7774 7.9,-5.28601 11.9,-3.9421c5,1.61268 1.4,5.19642 -1.1,6.8091c-1.5,0.98553 -3,2.06064 -4.1,2.6878c-0.3,0.44796 -0.4,0.98553 -0.1,1.43349z" fill="#ffab19" stroke="#001026" stroke-width="1.2" stroke-linecap="round" stroke-linejoin="round"/><g><path d="M253.7,141.27574c0.3,-0.17919 0.8,-0.08959 0.9,0.26878l2.6,9.58648c0,0 6.4,4.21089 8.3,7.16746c3.2,4.92763 3.3,8.95933 3.3,8.95933c0,0 7.1,1.88146 8.3,6.98827c1.2,5.10682 -3.2,14.7829 -22,18.09785c-18.8,3.31495 -33.9,-1.2543 -41,-11.46794c-7.1,-10.21363 4.1,-22.39832 3.5,-21.68157l-2.1,-16.0372c-0.1,-0.35838 0.4,-0.62715 0.8,-0.44796l12.1,7.07787c0,0 4.5,-1.52308 9.2,-1.70227c2.8,-0.17919 5.2,0 7.5,0.35838z" fill="#ffab19" stroke="#001026" stroke-width="1.2" stroke-linecap="butt" stroke-linejoin="miter"/><path d="M268.5,167.61616c0,0 6.9,1.61268 8.1,6.7195c1.2,5.10682 -3.6,14.33492 -22.2,17.56028c-24.2,4.47966 -35.7,-8.42177 -29,-17.91866c6.7,-9.58648 18.2,-1.43349 26.6,-1.97106c7.2,-0.44796 8,-6.09235 16.5,-4.39008z" fill="#ffffff" stroke="none" stroke-width="1" stroke-linecap="butt" stroke-linejoin="miter"/><path d="M237,177.20264c0,-0.35838 0.4,-0.62715 0.8,-0.53756c1.9,0.62715 7.3,2.06064 13.3,2.41902c5.4,0.26878 8.6,0 10.1,-0.26878c0.5,-0.08959 0.9,0.35838 0.7,0.80634c-0.9,2.41902 -4.7,9.13852 -15.2,8.60095c-9.1,-0.89593 -10,-6.62991 -9.7,-11.01997z" fill="#ffffff" stroke="#001026" stroke-width="1.2" stroke-linecap="round" stroke-linejoin="round"/><path d="M286.9,168.60169c-4.7,3.40455 -11.9,3.49414 -11.9,3.49414" fill="none" stroke="#001026" stroke-width="1.2" stroke-linecap="round" stroke-linejoin="round"/><path d="M285.6,178.63614c-6.3,0.44796 -10.2,-1.2543 -10.2,-1.2543" fill="none" stroke="#001026" stroke-width="1.2" stroke-linecap="round" stroke-linejoin="round"/><path d="M251.6,169.67681c2.1,0 4.3,0.17919 4.4,0.80634c0.1,1.2543 -1.4,3.76291 -3,3.85251c-1.8,0.17919 -6,-2.06064 -6,-3.49414c-0.1,-1.07512 2.6,-1.16472 4.6,-1.16472z" fill="#001026" stroke="#001026" stroke-width="1.2" stroke-linecap="round" stroke-linejoin="round"/><path d="M206.6,168.33291c0,0 8.6,2.50861 12.1,5.28601" fill="none" stroke="#001026" stroke-width="1.2" stroke-linecap="round" stroke-linejoin="round"/><path d="M219,176.75468c-4.3,1.52308 -11.7,0.53756 -11.7,0.53756" fill="none" stroke="#001026" stroke-width="1.2" stroke-linecap="round" stroke-linejoin="round"/><g><path d="M263.4,159.1944c2.9,4.0317 3,8.60095 0.2,10.21363c-2.8,1.61268 -7.4,-0.26878 -10.4,-4.30048c-2.9,-4.0317 -3,-8.60095 -0.2,-10.21363c2.8,-1.70227 7.5,0.26878 10.4,4.30048z" fill="#ffffff" stroke="#001026" stroke-width="1.2" stroke-linecap="round" stroke-linejoin="round"/><path d="M263,164.30121c0,0.98553 -0.8,1.79187 -1.8,1.79187c-1,0 -1.8,-0.80634 -1.8,-1.79187c0,-0.98553 0.8,-1.79187 1.8,-1.79187c1,0 1.8,0.80634 1.8,1.79187" fill="#001026" stroke="none" stroke-width="1" stroke-linecap="butt" stroke-linejoin="miter"/></g><g><path d="M238.6,161.703c3,3.9421 2.8,8.78014 0.1,10.48241c-3.3,1.70227 -7.7,0.44796 -10.7,-3.49414c-3.1,-3.9421 -3.3,-9.04892 -0.2,-11.01997c3.1,-2.06064 7.8,0.08959 10.8,4.0317z" fill="#ffffff" stroke="#001026" stroke-width="1.2" stroke-linecap="round" stroke-linejoin="round"/><path d="M238,166.89942c0,0.98553 -0.8,1.79187 -1.8,1.79187c-1,0 -1.8,-0.80634 -1.8,-1.79187c0,-0.98553 0.8,-1.79187 1.8,-1.79187c1,0.08959 1.8,0.80634 1.8,1.79187" fill="#001026" stroke="none" stroke-width="1" stroke-linecap="butt" stroke-linejoin="miter"/></g></g></g></g></svg>