<svg version="1.1" xmlns="http://www.w3.org/2000/svg" xmlns:xlink="http://www.w3.org/1999/xlink" width="95.17898" height="4.97395" viewBox="0,0,95.17898,4.97395"><g transform="translate(-192.32102,-225.36216)"><g data-paper-data="{&quot;isPaintingLayer&quot;:true}" fill-rule="evenodd" stroke-miterlimit="10" stroke-dasharray="" stroke-dashoffset="0" style="mix-blend-mode: normal"><g><path d="M224.7,228.64521c0.8,0.01531 2.5,0.04976 0.1,0.1799c-2.4,0.13014 -9.3,0.15694 -10.1,0.15694c-3.1,0.00383 -6.9,0.00383 -11.1,-0.04976c-12.2,-0.15311 -12.3,-0.65454 -8.4,-0.73493c3.8,-0.08038 5.5,0.22966 11,0.41722c2.4,0.08421 5.3,0.11483 7.7,0.13397c3.4,0.02297 9.9,-0.12249 10.8,-0.10335z" fill="#ffab19" stroke="#001026" stroke-width="1.2" stroke-linecap="round" stroke-linejoin="round"/><path d="M199.9,228.33516c1.6,0.10335 4.7,0.2488 4.7,0.2488c0,0 -3.7,-0.03445 -5.8,0.03062c-1.7,0.04976 -1.3,0.13397 -1.1,0.16077c-1.3,-0.04976 -2.9,-0.11866 -3.9,-0.25263c-1,-0.13397 0,-0.29474 2,-0.3177c2,-0.01531 2.5,0.0421 4.1,0.13014z" fill="#ffffff" stroke="none" stroke-width="1" stroke-linecap="butt" stroke-linejoin="miter"/></g><path d="M229.7,229.04329c-1.8,0.04593 -8,0.21436 -15.9,0.31004l-0.4,0.00383c-0.4,0.00383 -0.6,0.02297 -0.4,0.03828c1.7,0.09186 4.8,0.2756 -0.7,0.34067c-5.3,0.06507 -15.2,-0.47464 -11,-0.61626c1.9,-0.05359 3.6,-0.0268 4.5,-0.01148c0.5,0.00766 1,0.00766 1.5,0.00383c1.2,-0.01531 3.4,-0.04593 5.1,-0.08038c4.3,-0.08421 5.3,-0.11866 7.3,-0.17608c2,-0.05742 6.6,-0.19904 10.3,-0.07655c3.2,0.10335 1.4,0.21818 -0.3,0.26411z" fill="#ffab19" stroke="#001026" stroke-width="1.2" stroke-linecap="round" stroke-linejoin="round"/><path d="M245.6,228.24713c0.5,0.01531 6.6,0.29091 8.6,0.22201c2.4,-0.08038 5.7,-0.23732 9.3,-0.111c3.6,0.12632 -3.2,0.34067 -6.1,0.39809c-6.9,0.11866 -12.5,-0.10718 -13.7,-0.16842c-1.2,-0.06124 -3.3,-0.16459 -3.3,-0.26411c0.1,-0.10718 3.5,-0.13397 5.2,-0.07655z" fill="#ffab19" stroke="#001026" stroke-width="1.2" stroke-linecap="round" stroke-linejoin="round"/><g><path d="M245.7,229.13899c2.1,0.07273 6.7,0.22201 6.7,0.22201c0,0 14.3,-0.0957 14.3,0.1799c0,0.16459 -7.2,0.20287 -16.9,0.16842c-0.6,-0.00383 -1.2,-0.01148 -1.7,-0.0268c-2.2,-0.07273 -8.5,-0.28708 -12.5,-0.43636c-5.9,-0.22201 -10.8,-0.36746 -10.8,-0.36746c-8.5,-0.3177 -1.6,-0.45167 1.1,-0.63541c2.5,-0.15694 3.6,-0.12632 9.6,-0.08038c3.4,0.01914 5.4,0.03062 7.6,0.0268c3.3,-0.00383 2.7,0.1799 1.8,0.2756c0,0 -1.4,0.14162 -2.7,0.21436c-1.6,0.08804 -2.8,0.14545 -4,0.1799z" fill="#ffab19" stroke="#001026" stroke-width="1.2" stroke-linecap="round" stroke-linejoin="round"/><path d="M237.3,228.85573c0,0 -1.5,-0.04593 -3.1,-0.10335c-2,-0.0689 -4,-0.12632 -2,-0.24498c1.8,-0.09186 3.5,-0.21436 8,-0.10335c4.3,0.10335 2.4,0.19904 2.4,0.19904c-2.2,0.17225 -5.3,0.25263 -5.3,0.25263z" fill="#ffffff" stroke="none" stroke-width="1" stroke-linecap="butt" stroke-linejoin="miter"/></g><path d="M222.2,228.54186c2.2,0.10718 5.6,0.24115 1.3,0.35215c-5.9,0.12632 -10.8,-0.25646 -11.8,-0.39043c-0.9,-0.11866 1.7,-0.19522 3.9,-0.26029c4.3,-0.11866 7.9,-0.22584 11.9,-0.16842c5,0.0689 1.4,0.22201 -1.1,0.29091c-1.5,0.0421 -3,0.08804 -4.1,0.11483c-0.3,0.01914 -0.4,0.0421 -0.1,0.06124z" fill="#ffab19" stroke="#001026" stroke-width="1.2" stroke-linecap="round" stroke-linejoin="round"/><g><path d="M253.7,225.96196c0.3,-0.00766 0.8,-0.00383 0.9,0.01148l2.6,0.40957c0,0 6.4,0.1799 8.3,0.30622c3.2,0.21052 3.3,0.38277 3.3,0.38277c0,0 7.1,0.08038 8.3,0.29856c1.2,0.21818 -3.2,0.63158 -22,0.7732c-18.8,0.14162 -33.9,-0.05359 -41,-0.48995c-7.1,-0.43636 4.1,-0.95693 3.5,-0.92631l-2.1,-0.68516c-0.1,-0.01531 0.4,-0.0268 0.8,-0.01914l12.1,0.30239c0,0 4.5,-0.06507 9.2,-0.07273c2.8,-0.00766 5.2,0 7.5,0.01531z" fill="#ffab19" stroke="#001026" stroke-width="1.2" stroke-linecap="butt" stroke-linejoin="miter"/><path d="M268.5,227.08732c0,0 6.9,0.0689 8.1,0.28708c1.2,0.21818 -3.6,0.61244 -22.2,0.75024c-24.2,0.19139 -35.7,-0.35981 -29,-0.76555c6.7,-0.40957 18.2,-0.06124 26.6,-0.08421c7.2,-0.01914 8,-0.26029 16.5,-0.18756z" fill="#ffffff" stroke="none" stroke-width="1" stroke-linecap="butt" stroke-linejoin="miter"/><path d="M237,227.49689c0,-0.01531 0.4,-0.0268 0.8,-0.02297c1.9,0.0268 7.3,0.08804 13.3,0.10335c5.4,0.01148 8.6,0 10.1,-0.01148c0.5,-0.00383 0.9,0.01531 0.7,0.03445c-0.9,0.10335 -4.7,0.39043 -15.2,0.36746c-9.1,-0.03828 -10,-0.28325 -9.7,-0.47081z" fill="#ffffff" stroke="#001026" stroke-width="1.2" stroke-linecap="round" stroke-linejoin="round"/><path d="M286.9,227.12942c-4.7,0.14545 -11.9,0.14928 -11.9,0.14928" fill="none" stroke="#001026" stroke-width="1.2" stroke-linecap="round" stroke-linejoin="round"/><path d="M285.6,227.55813c-6.3,0.01914 -10.2,-0.05359 -10.2,-0.05359" fill="none" stroke="#001026" stroke-width="1.2" stroke-linecap="round" stroke-linejoin="round"/><path d="M251.6,227.17536c2.1,0 4.3,0.00766 4.4,0.03445c0.1,0.05359 -1.4,0.16077 -3,0.16459c-1.8,0.00766 -6,-0.08804 -6,-0.14928c-0.1,-0.04593 2.6,-0.04976 4.6,-0.04976z" fill="#001026" stroke="#001026" stroke-width="1.2" stroke-linecap="round" stroke-linejoin="round"/><path d="M206.6,227.11794c0,0 8.6,0.10718 12.1,0.22584" fill="none" stroke="#001026" stroke-width="1.2" stroke-linecap="round" stroke-linejoin="round"/><path d="M219,227.47775c-4.3,0.06507 -11.7,0.02297 -11.7,0.02297" fill="none" stroke="#001026" stroke-width="1.2" stroke-linecap="round" stroke-linejoin="round"/><g><path d="M263.4,226.72751c2.9,0.17225 3,0.36746 0.2,0.43636c-2.8,0.0689 -7.4,-0.01148 -10.4,-0.18373c-2.9,-0.17225 -3,-0.36746 -0.2,-0.43636c2.8,-0.07273 7.5,0.01148 10.4,0.18373z" fill="#ffffff" stroke="#001026" stroke-width="1.2" stroke-linecap="round" stroke-linejoin="round"/><path d="M263,226.94569c0,0.0421 -0.8,0.07655 -1.8,0.07655c-1,0 -1.8,-0.03445 -1.8,-0.07655c0,-0.0421 0.8,-0.07655 1.8,-0.07655c1,0 1.8,0.03445 1.8,0.07655" fill="#001026" stroke="none" stroke-width="1" stroke-linecap="butt" stroke-linejoin="miter"/></g><g><path d="M238.6,226.83469c3,0.16842 2.8,0.37512 0.1,0.44784c-3.3,0.07273 -7.7,0.01914 -10.7,-0.14928c-3.1,-0.16842 -3.3,-0.3866 -0.2,-0.47081c3.1,-0.08804 7.8,0.00383 10.8,0.17225z" fill="#ffffff" stroke="#001026" stroke-width="1.2" stroke-linecap="round" stroke-linejoin="round"/><path d="M238,227.0567c0,0.0421 -0.8,0.07655 -1.8,0.07655c-1,0 -1.8,-0.03445 -1.8,-0.07655c0,-0.0421 0.8,-0.07655 1.8,-0.07655c1,0.00383 1.8,0.03445 1.8,0.07655" fill="#001026" stroke="none" stroke-width="1" stroke-linecap="butt" stroke-linejoin="miter"/></g></g></g></g></svg>